<svg id="visual" viewBox="0 0 960 540" width="960" height="540" xmlns="http://www.w3.org/2000/svg" xmlns:xlink="http://www.w3.org/1999/xlink" version="1.1"><rect width="960" height="540" fill="#ebdca4"></rect><g><g transform="translate(405 68)"><path d="M0 -47.6L41.2 -23.8L41.2 23.8L0 47.6L-41.2 23.8L-41.2 -23.8Z" fill="none" stroke="#5578e5" stroke-width="2"></path></g><g transform="translate(226 92)"><path d="M0 -7L6.1 -3.5L6.1 3.5L0 7L-6.1 3.5L-6.1 -3.5Z" fill="none" stroke="#5578e5" stroke-width="2"></path></g><g transform="translate(253 278)"><path d="M0 -14L12.1 -7L12.1 7L0 14L-12.1 7L-12.1 -7Z" fill="none" stroke="#5578e5" stroke-width="2"></path></g><g transform="translate(212 438)"><path d="M0 -12L10.4 -6L10.4 6L0 12L-10.4 6L-10.4 -6Z" fill="none" stroke="#5578e5" stroke-width="2"></path></g><g transform="translate(561 442)"><path d="M0 -41L35.5 -20.5L35.5 20.5L0 41L-35.5 20.5L-35.5 -20.5Z" fill="none" stroke="#5578e5" stroke-width="2"></path></g><g transform="translate(113 301)"><path d="M0 -32L27.7 -16L27.7 16L0 32L-27.7 16L-27.7 -16Z" fill="none" stroke="#5578e5" stroke-width="2"></path></g><g transform="translate(315 518)"><path d="M0 -25L21.7 -12.5L21.7 12.5L0 25L-21.7 12.5L-21.7 -12.5Z" fill="none" stroke="#5578e5" stroke-width="2"></path></g><g transform="translate(593 8)"><path d="M0 -30L26 -15L26 15L0 30L-26 15L-26 -15Z" fill="none" stroke="#5578e5" stroke-width="2"></path></g><g transform="translate(804 344)"><path d="M0 -14L12.1 -7L12.1 7L0 14L-12.1 7L-12.1 -7Z" fill="none" stroke="#5578e5" stroke-width="2"></path></g><g transform="translate(398 181)"><path d="M0 -20L17.3 -10L17.3 10L0 20L-17.3 10L-17.3 -10Z" fill="none" stroke="#5578e5" stroke-width="2"></path></g><g transform="translate(667 532)"><path d="M0 -19L16.5 -9.5L16.5 9.5L0 19L-16.5 9.5L-16.5 -9.5Z" fill="none" stroke="#5578e5" stroke-width="2"></path></g><g transform="translate(498 305)"><path d="M0 -17L14.7 -8.5L14.7 8.5L0 17L-14.7 8.5L-14.7 -8.5Z" fill="none" stroke="#5578e5" stroke-width="2"></path></g><g transform="translate(879 201)"><path d="M0 -21L18.2 -10.5L18.2 10.5L0 21L-18.2 10.5L-18.2 -10.5Z" fill="none" stroke="#5578e5" stroke-width="2"></path></g><g transform="translate(299 377)"><path d="M0 -41L35.5 -20.5L35.5 20.5L0 41L-35.5 20.5L-35.5 -20.5Z" fill="none" stroke="#5578e5" stroke-width="2"></path></g><g transform="translate(492 124)"><path d="M0 -6L5.2 -3L5.2 3L0 6L-5.2 3L-5.2 -3Z" fill="none" stroke="#5578e5" stroke-width="2"></path></g><g transform="translate(30 4)"><path d="M0 -34L29.4 -17L29.4 17L0 34L-29.4 17L-29.4 -17Z" fill="none" stroke="#5578e5" stroke-width="2"></path></g><g transform="translate(625 243)"><path d="M0 -13L11.3 -6.5L11.3 6.5L0 13L-11.3 6.5L-11.3 -6.5Z" fill="none" stroke="#5578e5" stroke-width="2"></path></g><g transform="translate(738 231)"><path d="M0 -16L13.9 -8L13.9 8L0 16L-13.9 8L-13.9 -8Z" fill="none" stroke="#5578e5" stroke-width="2"></path></g><g transform="translate(5 122)"><path d="M0 -35L30.3 -17.5L30.3 17.5L0 35L-30.3 17.5L-30.3 -17.5Z" fill="none" stroke="#5578e5" stroke-width="2"></path></g><g transform="translate(789 483)"><path d="M0 -9L7.8 -4.5L7.8 4.5L0 9L-7.8 4.5L-7.8 -4.5Z" fill="none" stroke="#5578e5" stroke-width="2"></path></g><g transform="translate(647 140)"><path d="M0 -46L39.8 -23L39.8 23L0 46L-39.8 23L-39.8 -23Z" fill="none" stroke="#5578e5" stroke-width="2"></path></g><g transform="translate(114 206)"><path d="M0 -23L19.9 -11.5L19.9 11.5L0 23L-19.9 11.5L-19.9 -11.5Z" fill="none" stroke="#5578e5" stroke-width="2"></path></g><g transform="translate(904 412)"><path d="M0 -16L13.9 -8L13.9 8L0 16L-13.9 8L-13.9 -8Z" fill="none" stroke="#5578e5" stroke-width="2"></path></g><g transform="translate(454 441)"><path d="M0 -35L30.3 -17.5L30.3 17.5L0 35L-30.3 17.5L-30.3 -17.5Z" stroke="#5578e5" fill="none" stroke-width="2"></path></g><g transform="translate(144 27)"><path d="M0 -26L22.5 -13L22.5 13L0 26L-22.5 13L-22.5 -13Z" stroke="#5578e5" fill="none" stroke-width="2"></path></g><g transform="translate(859 36)"><path d="M0 -40L34.6 -20L34.6 20L0 40L-34.6 20L-34.6 -20Z" stroke="#5578e5" fill="none" stroke-width="2"></path></g><g transform="translate(112 422)"><path d="M0 -8L6.9 -4L6.9 4L0 8L-6.9 4L-6.9 -4Z" stroke="#5578e5" fill="none" stroke-width="2"></path></g><g transform="translate(279 184)"><path d="M0 -41L35.5 -20.5L35.5 20.5L0 41L-35.5 20.5L-35.5 -20.5Z" stroke="#5578e5" fill="none" stroke-width="2"></path></g><g transform="translate(799 131)"><path d="M0 -23L19.9 -11.5L19.9 11.5L0 23L-19.9 11.5L-19.9 -11.5Z" stroke="#5578e5" fill="none" stroke-width="2"></path></g><g transform="translate(707 357)"><path d="M0 -18L15.6 -9L15.6 9L0 18L-15.6 9L-15.6 -9Z" stroke="#5578e5" fill="none" stroke-width="2"></path></g><g transform="translate(916 314)"><path d="M0 -43L37.2 -21.5L37.2 21.5L0 43L-37.2 21.5L-37.2 -21.5Z" stroke="#5578e5" fill="none" stroke-width="2"></path></g><g transform="translate(368 307)"><path d="M0 -29L25.1 -14.5L25.1 14.5L0 29L-25.1 14.5L-25.1 -14.5Z" stroke="#5578e5" fill="none" stroke-width="2"></path></g><g transform="translate(12 328)"><path d="M0 -39L33.8 -19.5L33.8 19.5L0 39L-33.8 19.5L-33.8 -19.5Z" stroke="#5578e5" fill="none" stroke-width="2"></path></g><g transform="translate(706 18)"><path d="M0 -11L9.5 -5.5L9.5 5.5L0 11L-9.5 5.5L-9.5 -5.5Z" stroke="#5578e5" fill="none" stroke-width="2"></path></g><g transform="translate(294 1)"><path d="M0 -24L20.8 -12L20.8 12L0 24L-20.8 12L-20.8 -12Z" stroke="#5578e5" fill="none" stroke-width="2"></path></g><g transform="translate(598 345)"><path d="M0 -35L30.3 -17.5L30.3 17.5L0 35L-30.3 17.5L-30.3 -17.5Z" stroke="#5578e5" fill="none" stroke-width="2"></path></g><g transform="translate(59 506)"><path d="M0 -8L6.9 -4L6.9 4L0 8L-6.9 4L-6.9 -4Z" stroke="#5578e5" fill="none" stroke-width="2"></path></g><g transform="translate(203 537)"><path d="M0 -12L10.4 -6L10.4 6L0 12L-10.4 6L-10.4 -6Z" stroke="#5578e5" fill="none" stroke-width="2"></path></g><g transform="translate(891 514)"><path d="M0 -26L22.5 -13L22.5 13L0 26L-22.5 13L-22.5 -13Z" stroke="#5578e5" fill="none" stroke-width="2"></path></g><g transform="translate(949 68)"><path d="M0 -33L28.6 -16.5L28.6 16.5L0 33L-28.6 16.5L-28.6 -16.5Z" stroke="#5578e5" fill="none" stroke-width="2"></path></g><g transform="translate(488 533)"><path d="M0 -19L16.5 -9.5L16.5 9.5L0 19L-16.5 9.5L-16.5 -9.5Z" stroke="#5578e5" fill="none" stroke-width="2"></path></g><g transform="translate(15 228)"><path d="M0 -41L35.5 -20.5L35.5 20.5L0 41L-35.5 20.5L-35.5 -20.5Z" stroke="#5578e5" fill="none" stroke-width="2"></path></g><g transform="translate(488 2)"><path d="M0 -18L15.6 -9L15.6 9L0 18L-15.6 9L-15.6 -9Z" stroke="#5578e5" fill="none" stroke-width="2"></path></g><g transform="translate(533 214)"><path d="M0 -29L25.1 -14.5L25.1 14.5L0 29L-25.1 14.5L-25.1 -14.5Z" stroke="#5578e5" fill="none" stroke-width="2"></path></g></g></svg>